# xmcd
#
# Track frame offsets:
#	150
#	17522
#	35169
#	53565
#	68991
#	90121
#	119317
#	135569
#	163933
#	185554
#	205320
#	225626
#
# Disc length: 3212 seconds
#
# Revision: 0
# Processed by: cddbd v1.5.1PL2 Copyright (c) Steve Scherf et al.
# Submitted via: dBpowerAMP V4.0
#
DISCID=9d0c8a0c
DTITLE=Afel Bocoum - Niger
DYEAR=1900
DGENRE=
TTITLE0=Ali Farka
TTITLE1=Bambarare
TTITLE2=Barke Dawi
TTITLE3=Denke Denke
TTITLE4=Inkey
TTITLE5=Mali Chinda
TTITLE6=Manni
TTITLE7=Njorfu
TTITLE8=Niger
TTITLE9=Politique
TTITLE10=Tandina
TTITLE11=Uma Eya
EXTD=
EXTT0=
EXTT1=
EXTT2=
EXTT3=
EXTT4=
EXTT5=
EXTT6=
EXTT7=
EXTT8=
EXTT9=
EXTT10=
EXTT11=
PLAYORDER=
